<?xml version="1.0" encoding="UTF-8"?>
<svg id="Layer_2" data-name="Layer 2" xmlns="http://www.w3.org/2000/svg" viewBox="0 0 698.24 623.83">
  <defs>
    <style>
      .cls-1, .cls-2 {
        stroke-width: 0px;
      }
  .cls-1{
    fill: #001212;
  }
      .cls-2 {
        fill: #d9ff43;
      }
    </style>
  </defs>
  <g id="Objects">
    <g>
      <path class="cls-1" d="M674.85,422.43c-16.73,46.7-40.41,96.44-85.9,116.22-67.04,29.17-141.81-20.91-214.92-20.29-77.62.65-148.58,58.75-225.62,49.41-46.45-5.64-87.65-36.39-112.48-76.07C11.08,452.04,1.3,404.36.97,357.57.02,219.36,84.67,84.12,209.39,24.56,251.99,4.21,301.29-7.76,346.53,5.73c28.61,8.53,60.84,37.59,88.29,67.89,40.84,45.08,92.98,78.44,151.29,95.76,39.14,11.63,73.12,31.9,93.68,67.13,32.31,55.36,16.64,125.58-4.95,185.91Z"/>
      <path class="cls-2" d="M592.69,412.02c-47.53,35.45-108.51,42.66-160.87,68.29-12.79,6.26-24.92,13.72-36.01,22.66-12.16,9.81-22.19,21.68-31.86,33.87-10.08,12.71-20.01,25.74-32.37,36.37-12.17,10.46-26.8,17.67-41.98,22.63-15.7,5.14-32.02,8.14-48.33,10.55-15.01,2.22-30.11,4.32-45.28,5.05-28.06,1.35-59.85-2.66-76.33-28.39-16.44-25.67-14.65-58.84-21.95-87.52-7.81-30.68-22.8-58.93-37.9-86.53-15.29-27.94-31.28-55.93-40.37-86.64-8.87-29.94-9.67-61.52-2.76-91.95,14.15-62.36,57.11-113.39,113.99-141.62,28.24-14.02,59.41-22.5,90.8-25.24,36.49-3.19,72.48,2.79,108.65,6.73,19.12,2.09,38.38,3.44,57.61,2.23s36.84-4.38,55.11-7.48c18.79-3.19,37.59-6.15,56.68-6.7,15.3-.44,30.88-2.36,46.11-.07,17.09,2.57,32.55,10.79,44.6,23.13,11.96,12.25,21.11,27.93,29.69,42.64,17.24,29.55,30.35,61.53,36.77,95.21,10.62,55.72.03,118-34.85,163.63-8.34,10.91-18.21,20.84-29.14,29.16-6.07,4.61-.1,15.04,6.06,10.36,48.32-36.73,72.31-96.48,73.71-156.13.77-32.8-5.67-65.4-17.2-96.05-6.19-16.46-13.73-32.4-22.37-47.7-8.7-15.4-18.19-31.11-29.65-44.63-11.51-13.57-26.85-23.98-44-28.91-15.93-4.58-32.48-3.88-48.84-3.07-18.44.92-36.54,2.08-54.82,4.94-19.45,3.05-38.79,6.98-58.41,8.91-39.62,3.91-78.62-3.57-117.93-7.36-34.86-3.36-69.68-1.83-103.68,7.02-63.59,16.54-120.53,56.95-151.21,115.81C9.53,203.63.82,235.31.05,267.41c-.79,33.16,8.12,64.7,21.81,94.65,13.89,30.38,31.82,58.7,46.28,88.8,7.05,14.67,13.18,29.8,17.39,45.54,4.17,15.58,5.87,31.61,8.58,47.48,2.6,15.21,6.29,30.68,14.41,43.99,7.77,12.72,19.25,22.37,32.96,28.13,28.49,11.97,61.02,7.7,90.71,3.7,32.92-4.44,67.39-9.98,95.63-28.71,28.49-18.89,44.14-50,68.77-72.86,21.94-20.36,49.89-32.51,77.78-42.39,28.92-10.24,58.58-18.53,86.55-31.31,13.31-6.08,26.08-13.28,37.83-22.04,6.12-4.56.14-14.99-6.06-10.36Z"/>
    </g>
  </g>
</svg>