<svg width="52" height="52" viewBox="0 0 52 52" fill="none" xmlns="http://www.w3.org/2000/svg">
<path fill-rule="evenodd" clip-rule="evenodd" d="M41.1667 8.66663H10.8333C9.10943 8.66663 7.45613 9.35145 6.23714 10.5704C5.01816 11.7894 4.33334 13.4427 4.33334 15.1666V34.6666C4.33334 36.3905 5.01816 38.0438 6.23714 39.2628C7.45613 40.4818 9.10943 41.1666 10.8333 41.1666L30.5 41.1666C31.6046 41.1666 32.5 40.2712 32.5 39.1666V38.8333C32.5 37.7287 31.6046 36.8333 30.5 36.8333L10.8333 36.8333C10.2587 36.8333 9.7076 36.605 9.30127 36.1987C8.89494 35.7924 8.66667 35.2413 8.66667 34.6666V21.6666H43.3333L43.3333 24C43.3333 25.1045 44.2288 26 45.3333 26H45.6667C46.7712 26 47.6667 25.1045 47.6667 24L47.6667 15.1666C47.6667 13.4427 46.9819 11.7894 45.7629 10.5704C44.5439 9.35145 42.8906 8.66663 41.1667 8.66663ZM15.1667 30.3333H21.6667C22.2413 30.3333 22.7924 30.105 23.1987 29.6987C23.6051 29.2924 23.8333 28.7413 23.8333 28.1666C23.8333 27.592 23.6051 27.0409 23.1987 26.6346C22.7924 26.2282 22.2413 26 21.6667 26H15.1667C14.592 26 14.0409 26.2282 13.6346 26.6346C13.2283 27.0409 13 27.592 13 28.1666C13 28.7413 13.2283 29.2924 13.6346 29.6987C14.0409 30.105 14.592 30.3333 15.1667 30.3333ZM43.3333 17.3333H8.66668V15.1666C8.66668 14.592 8.89495 14.0409 9.30128 13.6346C9.70761 13.2282 10.2587 13 10.8333 13H41.1667C41.7413 13 42.2924 13.2282 42.6987 13.6346C43.1051 14.0409 43.3333 14.592 43.3333 15.1666V17.3333ZM42.1942 27.9999L43.0862 30.6759C43.2337 31.1183 43.6477 31.4166 44.114 31.4166H46.7448C47.7689 31.4166 48.2212 32.7062 47.4216 33.3459L45.0602 35.235C44.6799 35.5393 44.5493 36.06 44.7412 36.5077L46.2309 39.9837C46.6554 40.9741 45.5308 41.9095 44.6343 41.3118L41.7674 39.4006C41.4035 39.158 40.9295 39.158 40.5656 39.4006L37.6987 41.3118C36.8021 41.9095 35.6776 40.9741 36.102 39.9837L37.5918 36.5077C37.7836 36.06 37.6531 35.5393 37.2728 35.235L34.9114 33.3459C34.1118 32.7062 34.5641 31.4166 35.5882 31.4166H38.219C38.6853 31.4166 39.0993 31.1183 39.2467 30.6759L40.1387 27.9999C40.468 27.0122 41.865 27.0122 42.1942 27.9999Z" fill="#005aea"/>
</svg>
