<svg width="52" height="53" viewBox="0 0 52 53" fill="none" xmlns="http://www.w3.org/2000/svg">
<path fill-rule="evenodd" clip-rule="evenodd" d="M29.5861 13.6323C26.3091 12.926 22.9016 13.2025 19.7756 14.4284C16.6496 15.6543 13.939 17.7771 11.9717 20.54C10.0044 23.3029 8.86461 26.5875 8.69019 29.9967C8.51578 33.4059 9.3142 36.7936 10.9889 39.75C11.5872 40.8063 11.2321 42.1569 10.1958 42.7667C9.15955 43.3765 7.83443 43.0146 7.23613 41.9584C5.14275 38.2628 4.14472 34.0282 4.36274 29.7667C4.58076 25.5053 6.0055 21.3994 8.46464 17.9458C10.9238 14.4922 14.312 11.8388 18.2195 10.3064C22.127 8.77399 26.3864 8.42831 30.4826 9.31116C31.6533 9.56348 32.4017 10.7353 32.1541 11.9286C31.9065 13.1218 30.7568 13.8846 29.5861 13.6323ZM35.4099 13.3695C36.0963 12.3704 37.4473 12.1276 38.4275 12.8271C39.7858 13.7965 41.0304 14.9216 42.1369 16.1803C42.9354 17.0886 42.8602 18.4847 41.969 19.2986C41.0778 20.1125 39.708 20.0359 38.9095 19.1276C38.0243 18.1206 37.0286 17.2205 35.942 16.4451C34.9618 15.7455 34.7236 14.3685 35.4099 13.3695ZM46.3602 23.3638C45.9509 22.2177 44.7076 21.6268 43.5831 22.044C42.4587 22.4611 41.8789 23.7283 42.2882 24.8744C42.7419 26.1449 43.051 27.4642 43.2094 28.8066C43.3523 30.0175 44.4313 30.881 45.6193 30.7353C46.8074 30.5897 47.6546 29.4899 47.5117 28.279C47.3137 26.6011 46.9273 24.9519 46.3602 23.3638ZM45.2154 34.9582C46.3534 35.3351 46.9762 36.5809 46.6065 37.7408C46.0941 39.3481 45.4024 40.8902 44.5449 42.3367C43.9261 43.3806 42.5942 43.7155 41.57 43.0848C40.5458 42.4541 40.2172 41.0966 40.836 40.0527C41.5219 38.8955 42.0753 37.6619 42.4852 36.376C42.855 35.2161 44.0773 34.5813 45.2154 34.9582ZM28.1667 19.875C28.1667 18.6554 27.1966 17.6667 26 17.6667C24.8034 17.6667 23.8333 18.6554 23.8333 19.875V31.2937C21.3088 32.2032 19.5 34.6571 19.5 37.5417C19.5 41.2006 22.4102 44.1667 26 44.1667C29.5899 44.1667 32.5 41.2006 32.5 37.5417C32.5 34.6571 30.6913 32.2032 28.1667 31.2937V19.875ZM26 39.75C27.1966 39.75 28.1667 38.7613 28.1667 37.5417C28.1667 36.3221 27.1966 35.3334 26 35.3334C24.8034 35.3334 23.8333 36.3221 23.8333 37.5417C23.8333 38.7613 24.8034 39.75 26 39.75Z" fill="#005aea"/>
</svg>
