<svg width="53" height="53" viewBox="0 0 53 53" fill="none" xmlns="http://www.w3.org/2000/svg">
<path d="M19.8749 22.0834H22.0833C22.669 22.0834 23.2307 21.8507 23.6448 21.4366C24.059 21.0225 24.2916 20.4608 24.2916 19.8751C24.2916 19.2894 24.059 18.7277 23.6448 18.3136C23.2307 17.8994 22.669 17.6667 22.0833 17.6667H19.8749C19.2893 17.6667 18.7276 17.8994 18.3134 18.3136C17.8993 18.7277 17.6666 19.2894 17.6666 19.8751C17.6666 20.4608 17.8993 21.0225 18.3134 21.4366C18.7276 21.8507 19.2893 22.0834 19.8749 22.0834ZM19.8749 26.5001C19.2893 26.5001 18.7276 26.7327 18.3134 27.1469C17.8993 27.561 17.6666 28.1227 17.6666 28.7084C17.6666 29.2941 17.8993 29.8558 18.3134 30.2699C18.7276 30.6841 19.2893 30.9167 19.8749 30.9167H33.1249C33.7106 30.9167 34.2723 30.6841 34.6865 30.2699C35.1006 29.8558 35.3333 29.2941 35.3333 28.7084C35.3333 28.1227 35.1006 27.561 34.6865 27.1469C34.2723 26.7327 33.7106 26.5001 33.1249 26.5001H19.8749ZM44.1666 19.7426C44.1436 19.5397 44.0992 19.3398 44.0341 19.1463V18.9476C43.9279 18.7205 43.7863 18.5118 43.6145 18.3292L30.3645 5.07925C30.182 4.90748 29.9733 4.76584 29.7462 4.65966C29.6803 4.6503 29.6134 4.6503 29.5474 4.65966C29.3231 4.53101 29.0754 4.44842 28.8187 4.41675H15.4583C13.7012 4.41675 12.0161 5.11474 10.7737 6.35717C9.53127 7.59959 8.83328 9.28469 8.83328 11.0417V41.9584C8.83328 43.7155 9.53127 45.4006 10.7737 46.643C12.0161 47.8854 13.7012 48.5834 15.4583 48.5834H37.5416C39.2987 48.5834 40.9838 47.8854 42.2262 46.643C43.4686 45.4006 44.1666 43.7155 44.1666 41.9584V19.8751C44.1666 19.8751 44.1666 19.8751 44.1666 19.7426ZM30.9166 11.9472L36.6362 17.6667H33.1249C32.5393 17.6667 31.9776 17.4341 31.5634 17.0199C31.1493 16.6058 30.9166 16.0441 30.9166 15.4584V11.9472ZM39.7499 41.9584C39.7499 42.5441 39.5173 43.1058 39.1031 43.5199C38.689 43.9341 38.1273 44.1667 37.5416 44.1667H15.4583C14.8726 44.1667 14.3109 43.9341 13.8968 43.5199C13.4826 43.1058 13.2499 42.5441 13.2499 41.9584V11.0417C13.2499 10.4561 13.4826 9.89436 13.8968 9.48022C14.3109 9.06608 14.8726 8.83341 15.4583 8.83341H26.4999V15.4584C26.4999 17.2155 27.1979 18.9006 28.4404 20.143C29.6828 21.3854 31.3679 22.0834 33.1249 22.0834H39.7499V41.9584ZM33.1249 35.3334H19.8749C19.2893 35.3334 18.7276 35.5661 18.3134 35.9802C17.8993 36.3944 17.6666 36.9561 17.6666 37.5417C17.6666 38.1274 17.8993 38.6891 18.3134 39.1033C18.7276 39.5174 19.2893 39.7501 19.8749 39.7501H33.1249C33.7106 39.7501 34.2723 39.5174 34.6865 39.1033C35.1006 38.6891 35.3333 38.1274 35.3333 37.5417C35.3333 36.9561 35.1006 36.3944 34.6865 35.9802C34.2723 35.5661 33.7106 35.3334 33.1249 35.3334Z" fill="#005aea"/>
</svg>
