<svg width="53" height="53" viewBox="0 0 53 53" fill="none" xmlns="http://www.w3.org/2000/svg">
<path fill-rule="evenodd" clip-rule="evenodd" d="M26.5 44.1666C36.257 44.1666 44.1667 36.257 44.1667 26.5C44.1667 16.7429 36.257 8.83329 26.5 8.83329C16.743 8.83329 8.83332 16.7429 8.83332 26.5C8.83332 36.257 16.743 44.1666 26.5 44.1666ZM26.5 48.5833C38.6963 48.5833 48.5833 38.6962 48.5833 26.5C48.5833 14.3037 38.6963 4.41663 26.5 4.41663C14.3037 4.41663 4.41666 14.3037 4.41666 26.5C4.41666 38.6962 14.3037 48.5833 26.5 48.5833Z" fill="#005aea"/>
<path fill-rule="evenodd" clip-rule="evenodd" d="M26.5002 21.0127C24.7079 21.0127 24.0242 22.1343 24.0242 22.6523C24.0242 23.1702 24.7079 24.2918 26.5002 24.2918C29.8794 24.2918 33.3929 26.6179 33.3929 30.348C33.3929 34.0781 29.8794 36.4042 26.5002 36.4042C23.121 36.4042 19.6075 34.0781 19.6075 30.348C19.6075 29.1284 20.5962 28.1397 21.8158 28.1397C23.0355 28.1397 24.0242 29.1284 24.0242 30.348C24.0242 30.866 24.7079 31.9875 26.5002 31.9875C28.2925 31.9875 28.9762 30.866 28.9762 30.348C28.9762 29.83 28.2925 28.7085 26.5002 28.7085C23.121 28.7085 19.6075 26.3823 19.6075 22.6523C19.6075 18.9222 23.121 16.5961 26.5002 16.5961C29.8794 16.5961 33.3929 18.9222 33.3929 22.6523C33.3929 23.8719 32.4042 24.8606 31.1846 24.8606C29.9649 24.8606 28.9762 23.8719 28.9762 22.6523C28.9762 22.1343 28.2925 21.0127 26.5002 21.0127Z" fill="#005aea"/>
<path fill-rule="evenodd" clip-rule="evenodd" d="M26.5 13.25C27.7196 13.25 28.7083 14.2387 28.7083 15.4583V18.8043C28.7083 20.0239 27.7196 21.0126 26.5 21.0126C25.2804 21.0126 24.2917 20.0239 24.2917 18.8043V15.4583C24.2917 14.2387 25.2804 13.25 26.5 13.25Z" fill="#005aea"/>
<path fill-rule="evenodd" clip-rule="evenodd" d="M26.5 31.9873C27.7196 31.9873 28.7083 32.976 28.7083 34.1956V37.5416C28.7083 38.7612 27.7196 39.7499 26.5 39.7499C25.2804 39.7499 24.2917 38.7612 24.2917 37.5416V34.1956C24.2917 32.976 25.2804 31.9873 26.5 31.9873Z" fill="#005aea"/>
</svg>
