<?xml version="1.0" encoding="UTF-8"?>
<svg id="Layer_1" data-name="Layer 1" xmlns="http://www.w3.org/2000/svg" viewBox="0 0 1000 1000">
  <defs>
    <style>
      .cls-1 {
        fill: #51a982;
      }

      .cls-2, .cls-3 {
        fill: #17a1ff;
      }

      .cls-4 {
        fill: #e89702;
      }

      .cls-5 {
        fill: #e49802;
      }

      .cls-3 {
        font-family: Montserrat-Bold, Montserrat;
        font-size: 171.03px;
        font-variation-settings: 'wght' 700;
        font-weight: 700;
      }
    </style>
  </defs>
  <g>
    <rect class="cls-2" x="70.73" y="547.74" width="16.09" height="32.19" rx="7.97" ry="7.97" transform="translate(-409.01 270.27) rotate(-51.01)"/>
    <rect class="cls-5" x="48.8" y="419.03" width="16.09" height="88.44" rx="7.97" ry="7.97" transform="translate(-338.96 215.93) rotate(-51.01)"/>
    <rect class="cls-2" x="59.78" y="477.35" width="16.09" height="72.42" rx="7.97" ry="7.97" transform="translate(-373.99 243.12) rotate(-51.01)"/>
    <path class="cls-1" d="M223.67,343.03h.16c4.4,0,7.97,3.57,7.97,7.97v80.63c0,4.4-3.57,7.97-7.97,7.97h-.16c-4.4,0-7.97-3.57-7.97-7.97v-80.63c0-4.4,3.57-7.97,7.97-7.97Z" transform="translate(-221.17 318.98) rotate(-51.01)"/>
    <rect class="cls-1" x="200.21" y="445.5" width="16.09" height="32.19" rx="7.97" ry="7.97" transform="translate(-281.54 333) rotate(-51.01)"/>
    <path class="cls-1" d="M356.12,525.51c.27-28.49-19.88-53.47-41.2-70.74l-36.13-29.25c-3.42-2.77-8.44-2.24-11.2,1.18l-.1.12c-2.77,3.42-2.24,8.44,1.18,11.2l6.38,5.16c3.42,2.77,3.95,7.78,1.18,11.2l-.1.12c-2.77,3.42-7.78,3.95-11.2,1.18l-68.92-55.8c-3.42-2.77-8.44-2.24-11.2,1.18l-.1.13c-2.77,3.42-2.24,8.44,1.18,11.2l106.44,86.18c3.42,2.77,3.95,7.78,1.18,11.2l-.1.12c-2.77,3.42-7.78,3.95-11.2,1.18l-43.9-35.55c-3.42-2.77-8.44-2.24-11.2,1.18l-.1.12c-2.77,3.42-2.24,8.44,1.18,11.2l68.92,55.8c3.42,2.77,3.95,7.78,1.18,11.2l-.1.13c-2.77,3.42-7.78,3.95-11.2,1.18l-112.7-91.24c-6.84-5.54-16.87-4.48-22.41,2.36l-.1.12,37.46,30.33,62.54,50.64c25.02,20.25,8.64,27.7,8.64,27.7l18.76,15.19c10.13-12.51,22.64-2.38,22.64-2.38l12.51,10.13.07.05c4.1,2.95,9.7,2.78,13.56-.47,20.21-17.03,27.97-46.26,28.22-73.27Z"/>
    <path class="cls-2" d="M190.1,643.61l-75.05-60.76c-3.42-2.77-8.44-2.24-11.2,1.18l-.1.13c-2.77,3.42-2.24,8.44,1.18,11.2l31.27,25.32c3.42,2.77,3.95,7.78,1.18,11.2l-.1.13c-2.77,3.42-7.78,3.95-11.2,1.18l-87.62-70.94c-3.42-2.77-8.44-2.24-11.2,1.18l-.1.13c-2.77,3.42-2.24,8.44,1.18,11.2l131.4,106.38s21.29,12.06,33.95-3.57c12.66-15.64-3.57-33.95-3.57-33.95Z"/>
    <path class="cls-4" d="M314.31,689.96s13.68-18.74-3.86-32.94l-1.02-.82c8.77-12.35-9.15-26.92-9.15-26.92l-18.76-15.19-12.51-10.13-25.08-20.3-6.19-5.01c10.13-12.51-2.38-22.63-2.38-22.63l-18.76-15.19-37.52-30.38-112.64-91.19c-3.42-2.77-8.44-2.24-11.2,1.18l-.1.13c-2.77,3.42-2.24,8.44,1.18,11.2l93.94,76.05c3.42,2.77,3.95,7.78,1.18,11.2l-.1.12c-2.77,3.42-7.78,3.95-11.2,1.18l-25.14-20.36c-3.42-2.77-8.44-2.24-11.2,1.18l-.1.12c-2.77,3.42-2.24,8.44,1.18,11.2l68.92,55.8c3.42,2.77,3.95,7.78,1.18,11.2l-.1.13c-2.77,3.42-7.78,3.95-11.2,1.18l-50.16-40.61c-3.42-2.77-8.44-2.24-11.2,1.18l-.1.12c-2.77,3.42-2.24,8.44,1.18,11.2l37.59,30.43,37.35,30.24,31.44,25.46,18.76,15.19s12.51,10.13,12.51,10.13c7.85,6.35,18.19,7.84,27.99,7.66,8.89-.16,18.54-3.5,26.27,2.76,0,0,19.04,15.42,19.04,15.42Z"/>
  </g>
  <g>
    <path class="cls-1" d="M379.88,665.61v-129.79h21.17l1.49,12.63c7.06-10.21,19.31-14.67,29.71-14.67,28.22,0,46.98,20.98,46.98,47.91s-16.9,47.91-46.24,47.91c-9.65,0-23.95-2.97-30.45-13v49.02h-22.65ZM456.57,581.69c0-14.3-9.66-26-26-26s-25.99,11.7-25.99,26,10.58,25.99,25.99,25.99,26-11.7,26-25.99Z"/>
    <path class="cls-1" d="M563.89,535.82h21.72v91.54h-21.35l-1.11-13.37c-5.2,10.77-19.5,15.97-29.71,16.15-27.11.19-47.16-16.53-47.16-48.65s20.98-48.09,47.72-47.9c12.26,0,23.95,5.76,29.15,14.85l.74-12.63ZM508.93,581.5c0,17.46,12.07,27.85,27.11,27.85,35.65,0,35.65-55.52,0-55.52-15.04,0-27.11,10.21-27.11,27.67Z"/>
    <path class="cls-1" d="M688.49,535.82l-55.89,129.79h-24.88l17.08-39.74-36.58-90.06h26.37l13.93,39.55,8.73,25.81,9.47-25.25,16.71-40.11h25.07Z"/>
  </g>
  <g>
    <g>
      <path class="cls-2" d="M487.06,497.75h-68.69l-11.26,24.77h-26.84l58.93-131.37h27.02l58.93,131.37h-27.02l-11.07-24.77ZM452.72,418.74l-24.4,55.93h48.8l-24.4-55.93Z"/>
      <path class="cls-2" d="M531.73,522.53v-71.13h-17.27v-20.08h17.27v-6.19c0-24.77,16.7-36.22,35.28-36.22,8.07,0,16.51,2.63,24.02,7.51l-8.45,17.08c-4.88-3.19-9.38-4.88-14.08-4.88-7.88,0-13.89,5.25-13.89,16.52v6.19h27.21v20.08h-27.21v71.13h-22.9Z"/>
      <path class="cls-2" d="M614.49,430l1.69,10.7c7.13-11.45,16.7-13.14,26.09-13.14s18.77,3.75,23.83,8.82l-10.32,19.89c-4.69-3.94-9.01-6.01-16.52-6.01-12.01,0-23.08,6.38-23.08,23.46v48.79h-22.9v-92.52h21.21Z"/>
      <path class="cls-2" d="M695,403.92c0,17.83-27.02,17.83-27.02,0s27.02-17.83,27.02,0ZM670.04,429.63v92.9h22.9v-92.9h-22.9Z"/>
      <path class="cls-2" d="M788.27,510.7c-10.7,10.51-21.96,14.64-35.66,14.64-26.84,0-49.17-16.14-49.17-48.98s22.33-48.98,49.17-48.98c13.14,0,23.27,3.75,33.41,13.7l-14.45,15.2c-5.44-4.88-12.2-7.32-18.58-7.32-15.39,0-26.65,11.26-26.65,27.4,0,17.64,12.01,27.02,26.27,27.02,7.32,0,14.64-2.06,20.27-7.69l15.39,15.01Z"/>
      <path class="cls-2" d="M867.09,430h21.96v92.52h-21.58l-1.13-13.51c-5.25,10.89-19.7,16.14-30.03,16.33-27.4.19-47.67-16.7-47.67-49.17s21.21-48.61,48.23-48.42c12.39,0,24.21,5.82,29.46,15.01l.75-12.76ZM811.54,476.17c0,17.64,12.2,28.15,27.4,28.15,36.03,0,36.03-56.11,0-56.11-15.2,0-27.4,10.32-27.4,27.96Z"/>
    </g>
    <text class="cls-3" transform="translate(889.05 522.21)"><tspan x="0" y="0">n</tspan></text>
  </g>
</svg>